<svg width="178" height="36" viewBox="0 0 178 36" fill="none" xmlns="http://www.w3.org/2000/svg">
<line x1="112" y1="17.5" x2="178" y2="17.5" stroke="#0063A8"/>
<line y1="17.5" x2="66" y2="17.5" stroke="#0063A8"/>
<circle cx="89" cy="18" r="16" stroke="#0063A8" stroke-width="2.76396" stroke-dasharray="0.98 8.39"/>
<mask id="path-4-inside-1_4492_585" fill="white">
<path fill-rule="evenodd" clip-rule="evenodd" d="M88.0139 6.81229L81.1081 19.9671C80.7586 20.633 81.2415 21.4319 81.9935 21.4319H85.6765L85.4965 27.9451C85.438 30.0632 88.2817 30.8061 89.2666 28.9299L96.1724 15.7751C96.5219 15.1092 96.039 14.3103 95.287 14.3103H91.604L91.784 7.79715C91.8425 5.67898 88.9988 4.93612 88.0139 6.81229Z"/>
</mask>
<path fill-rule="evenodd" clip-rule="evenodd" d="M88.0139 6.81229L81.1081 19.9671C80.7586 20.633 81.2415 21.4319 81.9935 21.4319H85.6765L85.4965 27.9451C85.438 30.0632 88.2817 30.8061 89.2666 28.9299L96.1724 15.7751C96.5219 15.1092 96.039 14.3103 95.287 14.3103H91.604L91.784 7.79715C91.8425 5.67898 88.9988 4.93612 88.0139 6.81229Z" fill="#FFDF4E"/>
<path d="M81.1081 19.9671L82.337 20.6122L81.1081 19.9671ZM88.0139 6.81229L89.2427 7.45738V7.45738L88.0139 6.81229ZM85.6765 21.4319L87.0638 21.4702L87.1032 20.044H85.6765V21.4319ZM85.4965 27.9451L84.1092 27.9067L85.4965 27.9451ZM89.2666 28.9299L88.0378 28.2848L89.2666 28.9299ZM96.1724 15.7751L97.4012 16.4202L96.1724 15.7751ZM91.604 14.3103L90.2167 14.272L90.1773 15.6982H91.604V14.3103ZM91.784 7.79715L93.1713 7.83548L91.784 7.79715ZM82.337 20.6122L89.2427 7.45738L86.7851 6.1672L79.8793 19.322L82.337 20.6122ZM81.9935 20.044C82.2852 20.044 82.4725 20.3539 82.337 20.6122L79.8793 19.322C79.0446 20.912 80.1978 22.8198 81.9935 22.8198V20.044ZM85.6765 20.044H81.9935V22.8198H85.6765V20.044ZM86.8839 27.9834L87.0638 21.4702L84.2892 21.3936L84.1092 27.9067L86.8839 27.9834ZM88.0378 28.2848C87.7363 28.8591 86.8659 28.6317 86.8839 27.9834L84.1092 27.9067C84.0101 31.4947 88.827 32.7531 90.4954 29.575L88.0378 28.2848ZM94.9435 15.13L88.0378 28.2848L90.4954 29.575L97.4012 16.4202L94.9435 15.13ZM95.287 15.6982C94.9953 15.6982 94.808 15.3883 94.9435 15.13L97.4012 16.4202C98.2359 14.8302 97.0827 12.9225 95.287 12.9225V15.6982ZM91.604 15.6982H95.287V12.9225H91.604V15.6982ZM90.3966 7.75882L90.2167 14.272L92.9913 14.3486L93.1713 7.83548L90.3966 7.75882ZM89.2427 7.45738C89.5442 6.88315 90.4146 7.11049 90.3966 7.75882L93.1713 7.83548C93.2704 4.24747 88.4535 2.9891 86.7851 6.1672L89.2427 7.45738Z" fill="#0063A8" mask="url(#path-4-inside-1_4492_585)"/>
</svg>
